<svg xmlns="http://www.w3.org/2000/svg" viewBox="0 0 800 400" fill="none" role="img" aria-label="Beyond Belief — topographic signal texture">
  <g stroke="#CCFF00" stroke-width="1.25" opacity="0.55">
    <path d="M-20 320 C 160 280 300 300 460 250 C 620 200 700 230 820 190"></path>
    <path d="M-20 300 C 160 256 300 280 460 224 C 620 168 700 204 820 158"></path>
    <path d="M-20 280 C 160 232 300 260 460 198 C 620 136 700 178 820 126"></path>
    <path d="M-20 260 C 160 208 300 240 460 172 C 620 104 700 152 820 94"></path>
    <path d="M-20 240 C 160 184 300 220 460 146 C 620 72 700 126 820 62"></path>
  </g>
  <g stroke="#CCFF00" stroke-width="1.25" opacity="0.22">
    <path d="M-20 360 C 160 332 300 344 460 308 C 620 272 700 292 820 258"></path>
    <path d="M-20 380 C 160 356 300 366 460 336 C 620 306 700 322 820 292"></path>
  </g>
  <path d="M460 250 l8 8 -8 8 -8 -8z" fill="#CCFF00"></path>
</svg>