<svg xmlns="http://www.w3.org/2000/svg" viewBox="0 0 1230 528">
<g transform="translate(-280,-188)"><path d="M 282.697 191.636 C 281.250 193.084, 282.103 196.289, 285.092 200.633 C 289.847 207.545, 297.616 224.555, 300.332 234 C 304.375 248.065, 306.100 260.524, 306.707 280.044 C 307.876 317.659, 301.353 350.370, 285.860 384.584 C 280.016 397.490, 279.479 400.423, 282.819 401.188 C 283.744 401.400, 326.575 401.299, 378 400.965 C 469.071 400.373, 471.699 400.303, 479.144 398.247 C 490.398 395.139, 498.577 390.610, 505.546 383.627 C 525.018 364.114, 527.462 328.137, 510.738 307.197 C 504.949 299.948, 494.618 292.841, 485.055 289.529 L 481.500 288.297 485.925 286.039 C 497.335 280.216, 506.846 265.747, 509.174 250.669 C 512.613 228.404, 502.354 208.142, 482.811 198.600 C 467.570 191.158, 473.724 191.572, 373.447 191.239 C 323.918 191.074, 283.080 191.253, 282.697 191.636 M 530.892 192.630 C 529.783 193.967, 529.517 208.407, 529.414 272.880 C 529.346 316.121, 528.776 361.614, 528.149 373.976 C 527.086 394.926, 527.127 396.569, 528.754 398.168 C 530.376 399.762, 537.551 399.902, 629.874 400.147 L 729.249 400.411 730.963 398.294 C 732.395 396.526, 732.786 392.925, 733.339 376.428 C 734.433 343.742, 734.239 334.382, 732.429 332.571 C 731.564 331.707, 730.660 331, 730.420 331 C 730.180 331, 723.124 332.981, 714.741 335.403 C 682.446 344.732, 664.835 347.344, 634 347.382 C 613.670 347.406, 611.115 347.221, 607.508 345.454 C 602.316 342.913, 601.033 340.092, 601.015 331.184 C 600.999 323.418, 601.927 320.559, 605.367 317.772 C 607.312 316.197, 611.226 316.043, 649.693 316.022 L 691.887 316 693.443 313.777 C 694.722 311.953, 695 308.107, 695 292.277 C 695 274.333, 694.862 272.862, 693 271 C 691.065 269.065, 689.667 269, 649.950 269 C 605.426 269, 604.647 268.911, 602.195 263.528 C 601.538 262.086, 601 258.009, 601 254.469 C 601 248.762, 601.332 247.661, 603.927 244.766 L 606.854 241.500 629.677 241.617 C 642.230 241.681, 660.268 242.041, 669.761 242.418 C 684.356 242.998, 687.109 242.880, 687.579 241.655 C 688.093 240.314, 679.165 227.174, 660.841 202.306 C 655.204 194.656, 653.431 192.936, 650.283 192.062 C 647.844 191.384, 626.208 191.009, 589.372 191.006 C 537.783 191.001, 532.114 191.158, 530.892 192.630 M 671.359 192.508 C 670.618 194.438, 670.490 194.251, 694.403 226.349 C 732.564 277.571, 758.384 313.381, 760.134 317.508 C 761.091 319.768, 761.370 329.852, 761.271 358.748 C 761.158 391.553, 761.353 397.210, 762.641 398.498 C 763.862 399.719, 767.449 400.003, 781.821 400.017 C 801.717 400.037, 810.123 401.344, 818.280 405.688 C 821.793 407.558, 831.186 416.011, 847 431.533 C 875.869 459.869, 886.810 467.571, 908.500 474.827 C 921.983 479.337, 941.962 481.572, 946 479.022 C 947.266 478.223, 947.546 473.545, 947.793 449.081 C 948.071 421.538, 947.989 419.989, 946.153 418.153 C 944.351 416.351, 942.175 416.185, 914.359 415.725 C 881.563 415.182, 876.967 414.536, 865.791 408.895 C 854.222 403.055, 845.359 391.162, 841.275 376 C 838.552 365.888, 838.854 337.268, 841.796 326.646 C 847.243 306.978, 861.328 284.529, 909.233 219.155 C 919.061 205.743, 926.961 194.034, 926.788 193.135 C 926.504 191.662, 922.753 191.474, 888.944 191.238 C 859.949 191.036, 851.035 191.263, 849.745 192.238 C 848.826 192.932, 840.619 209.241, 831.507 228.480 C 822.395 247.719, 814.536 263.864, 814.043 264.357 C 812.227 266.173, 808.472 264.003, 806.120 259.776 C 798.557 246.188, 766.492 193.300, 765.180 192.250 C 763.981 191.291, 752.950 191, 717.777 191 C 677.849 191, 671.863 191.194, 671.359 192.508 M 944.457 192.880 C 941.813 194.081, 938.154 197.449, 933.885 202.609 C 913.352 227.429, 874.361 284.627, 868.638 298.324 C 863.459 310.718, 867.447 338.540, 877.042 356.951 C 887.221 376.484, 905.421 390.710, 928.554 397.216 C 936.241 399.378, 937.982 399.452, 982 399.476 C 1033.469 399.503, 1033.685 399.478, 1050.500 391.548 C 1067.106 383.717, 1078.834 372.607, 1086.879 357.089 C 1095.395 340.661, 1098.332 325.740, 1098.314 299 C 1098.296 273.350, 1095.133 256.690, 1086.691 237.782 C 1076.853 215.746, 1057.507 198.117, 1037.567 193.017 C 1030.285 191.155, 1026.565 191.002, 989.090 191.022 C 951.866 191.042, 948.165 191.196, 944.457 192.880 M 1103.542 192.346 C 1101.428 193.891, 1101.513 195.785, 1104.876 222 C 1108.327 248.908, 1109.269 267.945, 1108.715 299.666 C 1108.183 330.213, 1107.291 339.474, 1102.953 359.486 C 1101.196 367.592, 1094.843 387.498, 1091.579 395.121 C 1091.167 396.083, 1091.547 397.404, 1092.514 398.371 C 1093.964 399.821, 1098.456 400, 1133.380 400 C 1163.762 400, 1173.014 399.710, 1174.375 398.715 C 1176.035 397.501, 1176.047 396.680, 1174.590 383.965 C 1172.076 362.032, 1170.860 343.658, 1170.675 324.811 C 1170.523 309.452, 1170.723 306.858, 1172.165 305.411 C 1173.262 304.311, 1174.629 303.960, 1176.165 304.382 C 1178.526 305.030, 1182.345 310.168, 1225.287 370.488 C 1236.199 385.815, 1245.580 398.015, 1247 398.723 C 1248.717 399.580, 1255.178 399.975, 1267.639 399.985 C 1290.994 400.004, 1289.805 400.801, 1291.579 383.931 C 1293.867 362.173, 1294.501 341.753, 1294.450 291.500 C 1294.390 232.230, 1292.080 195.132, 1288.270 192.250 C 1285.698 190.304, 1220.693 190.460, 1219.070 192.416 C 1218.138 193.538, 1218.866 195.762, 1222.587 203.166 C 1231.972 221.838, 1239.589 249.733, 1241.538 272.566 C 1242.115 279.331, 1241.961 280.896, 1240.584 282.273 C 1239.681 283.176, 1238.393 283.704, 1237.721 283.446 C 1237.049 283.189, 1232.904 277.245, 1228.509 270.239 C 1224.114 263.232, 1214.499 248.050, 1207.141 236.500 C 1199.784 224.950, 1190.561 210.461, 1186.646 204.303 C 1182.730 198.144, 1178.487 192.632, 1177.216 192.053 C 1173.506 190.362, 1105.887 190.631, 1103.542 192.346 M 1304.140 192.331 C 1303.229 193.429, 1303.180 195.369, 1303.943 200.146 C 1308.622 229.437, 1308.292 353.572, 1303.433 392.105 C 1302.335 400.811, 1297.291 400.246, 1371.412 399.715 C 1432.156 399.280, 1437.143 399.112, 1446.132 397.202 C 1481.570 389.674, 1500.655 367.382, 1507.517 325.500 C 1509.683 312.281, 1509.440 289.775, 1506.976 275.361 C 1502.708 250.395, 1494.881 233.881, 1480.500 219.500 C 1470.040 209.040, 1460.786 203.353, 1446.158 198.396 C 1426.123 191.607, 1427.332 191.711, 1363.426 191.271 C 1313.391 190.927, 1305.184 191.073, 1304.140 192.331 M 392.659 233.054 C 388.362 236.433, 387.781 240.992, 388.571 265.126 C 388.965 277.157, 389.388 287, 389.511 287 C 389.634 287, 392.700 285.012, 396.323 282.583 C 399.946 280.153, 405.665 276.697, 409.031 274.903 C 418.343 269.939, 424.215 262.411, 425.963 253.193 C 427.730 243.880, 423.894 235.634, 416.282 232.377 C 414.354 231.552, 409.497 231, 404.167 231 C 396.706 231, 394.848 231.332, 392.659 233.054 M 1379.425 238.310 L 1376.500 240.826 1376.195 288.663 C 1375.870 339.618, 1376.108 342.714, 1380.560 345.631 C 1384.368 348.126, 1396.883 347.116, 1404.315 343.713 C 1412.036 340.179, 1421.142 330.995, 1424.987 322.864 C 1433.739 304.356, 1432.834 278.788, 1422.750 259.726 C 1415.643 246.291, 1402.219 236.944, 1388.925 236.175 C 1383.048 235.834, 1382.041 236.061, 1379.425 238.310 M 965.344 247.421 C 947.102 251.845, 934 273.164, 934 298.420 C 934 323.055, 945.429 339.205, 965.488 342.913 C 972.900 344.283, 989.536 344.304, 997.862 342.953 C 1018.126 339.665, 1030 323.222, 1030 298.450 C 1030 281.989, 1024.326 266.361, 1014.894 256.841 C 1009.500 251.397, 1004.557 248.682, 997.201 247.123 C 990.288 245.658, 971.904 245.830, 965.344 247.421 M 411.005 302.668 C 402.004 305.817, 393.002 314.196, 387.923 324.150 C 381.372 336.991, 381.177 358.449, 387.573 362.639 C 391.076 364.935, 405.382 364.027, 413.344 361.005 C 424.257 356.862, 433.923 346.556, 437.264 335.500 C 439.290 328.798, 438.786 317.167, 436.261 312.376 C 433.554 307.239, 429.069 303.391, 424.219 302.044 C 419.234 300.660, 416.357 300.796, 411.005 302.668 M 1364.300 415.925 C 1308.775 416.309, 1280.754 416.846, 1280.060 417.540 C 1279.340 418.260, 1279.462 423.184, 1280.456 433.540 C 1285.601 487.133, 1284.826 583.966, 1278.940 622.877 C 1278.036 628.854, 1278.079 630.508, 1279.168 631.596 C 1280.242 632.670, 1289.261 632.995, 1324.215 633.220 C 1361.996 633.462, 1368.120 633.297, 1369.393 632 C 1370.691 630.678, 1370.643 628.954, 1368.987 617.500 C 1366.723 601.845, 1364.335 579.344, 1363.410 564.959 C 1362.680 553.608, 1363.781 549.258, 1367.945 547.030 C 1369.189 546.364, 1387.124 546, 1418.712 546 C 1461.300 546, 1467.840 545.801, 1469.777 544.443 C 1471.925 542.939, 1472 542.316, 1472 526.015 C 1472 512.010, 1471.733 508.876, 1470.429 507.571 C 1469.043 506.186, 1463.080 506, 1419.976 506 C 1386.959 506, 1370.321 505.648, 1368.712 504.915 C 1363.948 502.744, 1363 499.365, 1363 484.546 C 1363 469.245, 1363.908 466.109, 1368.944 464.023 C 1371.287 463.052, 1380.963 462.887, 1411.241 463.298 C 1454.945 463.891, 1461.879 464.659, 1483.968 471.359 C 1492.220 473.861, 1495.936 474.569, 1497.218 473.883 C 1498.859 473.005, 1499 470.812, 1499 446.120 C 1499 420.491, 1498.911 419.229, 1496.980 417.482 C 1494.478 415.218, 1484.117 415.096, 1364.300 415.925 M 974.323 417.250 C 973.886 417.938, 973.646 436.725, 973.791 459 C 973.936 481.275, 973.628 504.675, 973.108 511 C 972.587 517.325, 972.515 522.867, 972.947 523.316 C 973.379 523.765, 976.380 523.415, 979.616 522.539 C 988.900 520.024, 1001.314 519.552, 1010 521.382 C 1025.259 524.597, 1040.869 534.803, 1049.112 546.954 C 1050.975 549.701, 1052.909 551.960, 1053.409 551.974 C 1053.952 551.990, 1054.039 525.139, 1053.624 485.250 C 1052.996 424.786, 1052.775 418.382, 1051.274 417.250 C 1050.018 416.302, 1040.618 416, 1012.368 416 C 983.659 416, 974.936 416.287, 974.323 417.250 M 1066.959 417.549 C 1065.913 418.810, 1065.910 422.391, 1066.945 436.799 C 1067.645 446.535, 1068.445 475.425, 1068.723 501 C 1069.386 561.954, 1067.726 590.759, 1061.893 619.486 C 1059.880 629.402, 1059.880 629.484, 1061.826 631.060 C 1063.589 632.488, 1073.654 632.641, 1161.358 632.574 C 1250.388 632.506, 1259.072 632.356, 1260.568 630.860 C 1263.437 627.992, 1269.226 597.458, 1270.594 577.981 C 1271.504 565.026, 1271.051 564.700, 1259.600 570.066 C 1246.414 576.245, 1234.591 578.853, 1214.048 580.115 C 1192.696 581.426, 1155.775 580.452, 1151.956 578.477 C 1147.914 576.387, 1146.998 572.995, 1147.022 560.203 C 1147.046 547.734, 1147.738 545.647, 1152.684 543.117 C 1154.200 542.342, 1169.093 542, 1201.378 542 L 1247.887 542 1249.443 539.777 C 1250.722 537.953, 1251 534.107, 1251 518.277 C 1251 500.333, 1250.862 498.862, 1249 497 C 1247.057 495.057, 1245.667 495, 1199.923 495 L 1152.846 495 1149.923 492.077 C 1147.076 489.230, 1147 488.889, 1147 479 C 1147 469.044, 1147.059 468.788, 1150.010 465.836 L 1153.020 462.826 1193.260 463.261 C 1237.671 463.742, 1240.695 464.108, 1256.695 470.931 C 1260.653 472.619, 1264.560 474, 1265.378 474 C 1268.241 474, 1268.114 470.070, 1264.952 460.784 C 1257.617 439.245, 1248.313 418.773, 1245.070 417.038 C 1243.773 416.343, 1214.187 416, 1155.688 416 C 1077.948 416, 1068.102 416.172, 1066.959 417.549 M 319.862 417.749 C 289.754 417.990, 285.052 418.232, 283.914 419.604 C 282.156 421.722, 281.678 446.768, 283.335 449.932 C 284.104 451.401, 286.711 452.897, 291 454.329 C 312.357 461.462, 324.449 477.754, 328.543 504.913 C 334.150 542.106, 322.279 580.448, 298.639 601.507 L 292.661 606.832 292.580 618.357 C 292.523 626.566, 292.874 630.259, 293.800 631.191 C 294.849 632.248, 314.108 632.557, 393.800 632.796 C 497.069 633.106, 515.365 632.597, 529.518 629.019 C 560.002 621.314, 577.959 597.772, 577.968 565.500 C 577.973 548.729, 573.145 536.106, 562.833 525.928 C 557.409 520.576, 547.164 514.337, 539.360 511.635 L 535.696 510.367 543.378 506.718 C 566.269 495.847, 576.088 469.346, 565.661 446.572 C 561.990 438.553, 558.703 434.693, 551.149 429.532 C 542.936 423.920, 533.192 420.432, 520.301 418.489 C 510.659 417.036, 441.411 416.780, 319.862 417.749 M 589.965 418.542 C 588.934 419.785, 588.914 423.044, 589.862 435.292 C 592.560 470.172, 593.304 506.688, 592.108 545.610 C 591.023 580.945, 590.132 593.735, 586.941 619.790 C 585.955 627.839, 585.944 630.344, 586.890 631.290 C 587.815 632.216, 607.536 632.519, 670.800 632.581 C 716.285 632.626, 758.675 632.401, 764.999 632.081 L 776.498 631.500 777.749 627.671 C 779.469 622.407, 783.759 591.795, 784.574 578.973 C 785.486 564.622, 785.517 564.642, 770.785 569.815 C 748.928 577.491, 730.433 580.256, 700.500 580.322 C 683.330 580.361, 680.029 580.119, 677.171 578.617 C 672.034 575.916, 670.724 571.596, 671.162 558.792 C 671.511 548.594, 671.680 547.866, 674.288 545.257 L 677.044 542.500 719.228 542.218 C 756.488 541.969, 761.623 541.747, 763.207 540.313 C 764.815 538.857, 765 536.667, 765 519.068 C 765 502.926, 764.724 499.051, 763.443 497.223 L 761.887 495 720.394 495 C 673.653 495, 673.994 495.048, 671.922 488.134 C 671.287 486.014, 670.943 480.795, 671.158 476.536 C 671.529 469.202, 671.730 468.631, 674.951 465.752 L 678.353 462.713 701.427 463.295 C 731.169 464.045, 743.040 465.467, 767.279 471.183 C 785.415 475.459, 785.193 475.834, 777.746 453.500 C 773.043 439.397, 765.468 421.239, 763.250 418.750 C 761.787 417.109, 756.371 417, 676.467 417 C 600.893 417, 591.100 417.175, 589.965 418.542 M 780.368 418.483 C 780.055 419.299, 781.171 423.261, 782.848 427.289 C 793.610 453.141, 796.995 480.122, 796.986 540 C 796.982 573.730, 795.915 596.953, 793.449 617 C 791.916 629.468, 791.917 629.504, 794.055 631.241 C 796.068 632.875, 803.172 632.967, 910.849 632.741 C 1040.699 632.468, 1027.985 633.376, 1036.454 623.776 C 1041.724 617.804, 1047.183 607.096, 1049.019 599.132 C 1051.007 590.506, 1049.837 575.909, 1046.496 567.674 C 1040.828 553.703, 1030.311 543.184, 1016.326 537.498 C 1010.928 535.304, 1007.408 534.628, 999.500 534.268 C 980.665 533.412, 968.503 537.845, 944 554.500 C 921.902 569.520, 908.382 575, 893.421 575 C 885.032 575, 880.278 572.850, 877.752 567.915 C 876.164 564.815, 876.003 560.390, 876.002 519.898 L 876 475.295 869.750 470.496 C 866.313 467.857, 853.545 455.644, 841.377 443.357 C 825.800 427.626, 817.959 420.429, 814.877 419.030 C 811.152 417.340, 808.299 417.041, 795.719 417.022 C 783.564 417.004, 780.836 417.263, 780.368 418.483 M 415.314 457.950 C 409.765 461.334, 409.552 462.408, 409.525 487.167 C 409.511 499.633, 409.795 510.128, 410.156 510.489 C 410.517 510.850, 413.217 509.555, 416.156 507.611 C 423.534 502.732, 432.985 499.387, 446.040 497.037 C 466.287 493.391, 474.815 487.496, 477.439 475.334 C 479.073 467.758, 473.467 459.334, 465.277 457.060 C 463.182 456.478, 451.929 456.010, 440 456.009 C 420.469 456.008, 418.208 456.185, 415.314 457.950 M 447 519.631 C 436.432 521.653, 428.085 525.823, 420.912 532.665 C 412.278 540.901, 407 553.396, 407 565.602 C 407 572.900, 409.946 584.037, 412.572 586.663 C 414.713 588.804, 415.757 589, 424.997 589 C 456.600 589, 479.172 574.054, 482.984 550.604 C 485.776 533.433, 474.972 520.801, 456.470 519.604 C 452.637 519.356, 448.375 519.368, 447 519.631 M 590.701 672.750 C 590.349 673.382, 600.126 706.794, 602.272 712.296 C 602.866 713.820, 603.987 714.047, 609.671 713.796 L 616.370 713.500 619.843 700.741 C 621.753 693.724, 623.449 688.115, 623.612 688.278 C 623.775 688.441, 625.439 694.183, 627.311 701.037 L 630.715 713.500 637.558 713.500 L 644.402 713.500 650.670 693.500 C 654.118 682.500, 656.952 673.141, 656.969 672.702 C 656.986 672.264, 654.213 672.039, 650.806 672.202 L 644.611 672.500 641.125 685.236 C 639.207 692.240, 637.439 697.773, 637.196 697.530 C 636.953 697.287, 635.303 691.556, 633.529 684.794 L 630.303 672.500 624.152 672.202 C 616.961 671.854, 617.480 671.182, 613.484 686 C 612.075 691.225, 610.667 696.175, 610.354 697 C 610.041 697.825, 608.344 693.083, 606.582 686.462 C 604.821 679.841, 603.043 673.878, 602.631 673.212 C 601.817 671.895, 591.401 671.492, 590.701 672.750 M 684.456 673.255 C 684.180 673.972, 684.078 683.321, 684.228 694.029 L 684.500 713.500 701.750 713.774 L 719 714.047 719 709.024 L 719 704 707.437 704 L 695.873 704 696.187 700.750 L 696.500 697.500 706.250 697.214 L 716 696.928 716 692.464 L 716 688 706 688 L 696 688 696 685 L 696 682 707.555 682 L 719.110 682 718.805 677.250 L 718.500 672.500 701.728 672.226 C 688.665 672.012, 684.845 672.240, 684.456 673.255 M 747.490 673.166 C 747.196 673.932, 747.078 683.321, 747.228 694.029 L 747.500 713.500 762 713.500 C 774.827 713.500, 776.904 713.263, 779.998 711.445 C 781.922 710.315, 784.077 708.290, 784.787 706.945 C 787.282 702.221, 784.345 693, 780.345 693 C 778.458 693, 778.645 692.446, 781.500 689.591 C 783.244 687.847, 784 685.998, 784 683.480 C 784 674.752, 780.031 672.736, 761.762 672.187 C 750.663 671.853, 747.921 672.041, 747.490 673.166 M 860 692.988 L 860 714.232 873.250 713.836 C 884.543 713.499, 887.200 713.100, 891.243 711.135 C 896.965 708.352, 899.598 704.895, 901.165 698.105 C 903.411 688.376, 899.532 678.863, 891.666 674.806 C 888.174 673.005, 885.276 672.584, 873.750 672.201 L 860 671.744 860 692.988 M 929.230 692.750 L 929.500 713.500 946.500 713.500 L 963.500 713.500 963.500 709 L 963.500 704.500 952.250 704.217 L 941 703.934 941 700.467 L 941 697 951.057 697 L 961.115 697 960.807 692.750 L 960.500 688.500 950.750 688.214 L 941 687.928 941 684.964 L 941 682 952 682 L 963 682 963 677 L 963 672 945.980 672 L 928.959 672 929.230 692.750 M 998.316 673.943 C 992.068 676.780, 989.518 682.971, 991.955 689.383 C 993.318 692.968, 997.008 695.039, 1005.736 697.118 C 1014.406 699.184, 1017.075 701, 1015.042 703.450 C 1014.244 704.411, 1012.119 705, 1009.450 705 C 1006.049 705, 1004.732 704.475, 1003.179 702.500 C 1001.491 700.354, 1000.402 700, 995.498 700 L 989.783 700 990.459 702.750 C 992.301 710.242, 998.488 713.943, 1009.230 713.978 C 1020.978 714.016, 1028 709.402, 1028 701.643 C 1028 693.810, 1023.890 690.259, 1012.152 687.950 C 1005.049 686.553, 1002.242 684.619, 1004.088 682.394 C 1005.878 680.238, 1012.699 680.626, 1014.732 683 C 1016.043 684.531, 1017.682 685, 1021.722 685 C 1026.548 685, 1027 684.805, 1027 682.723 C 1027 674.025, 1009.759 668.748, 998.316 673.943 M 1056 693 L 1056 714 1062 714 L 1068 714 1068 693 L 1068 672 1062 672 L 1056 672 1056 693 M 1108.491 673.865 C 1093.891 680.498, 1091.868 701.277, 1104.925 710.500 C 1108.821 713.252, 1109.860 713.500, 1117.481 713.500 C 1123.991 713.500, 1126.209 713.121, 1127.724 711.750 C 1130.229 709.483, 1131 709.542, 1131 712 C 1131 713.704, 1131.667 714, 1135.500 714 L 1140 714 1140 701.965 L 1140 689.930 1129.853 690.215 L 1119.707 690.500 1119.603 694.227 C 1119.502 697.867, 1119.599 697.969, 1123.750 698.590 C 1126.088 698.941, 1128 699.593, 1128 700.041 C 1128 700.489, 1126.763 701.830, 1125.250 703.023 C 1121.364 706.086, 1115.485 705.225, 1111.750 701.046 C 1109.518 698.548, 1109 697.016, 1109 692.907 C 1109 688.647, 1109.462 687.384, 1111.923 684.923 C 1115.856 680.990, 1122.929 680.742, 1126.335 684.417 C 1128.366 686.608, 1129.084 686.769, 1134.037 686.145 C 1138.738 685.553, 1139.452 685.184, 1139.153 683.497 C 1138.541 680.043, 1135.108 676.231, 1130.677 674.086 C 1125.054 671.364, 1114.235 671.256, 1108.491 673.865 M 1168.982 672.250 C 1168.973 672.388, 1168.863 681.725, 1168.738 693 L 1168.511 713.500 1174.005 713.500 L 1179.500 713.500 1180 701.076 L 1180.500 688.653 1188.919 701.370 L 1197.338 714.087 1203.419 713.793 L 1209.500 713.500 1209.500 693 L 1209.500 672.500 1204 672.500 L 1198.500 672.500 1198 684.176 L 1197.500 695.853 1189.612 683.926 L 1181.724 672 1175.362 672 C 1171.863 672, 1168.992 672.112, 1168.982 672.250 M 759.443 682.289 C 759.171 682.998, 759.115 684.685, 759.318 686.039 C 759.634 688.132, 760.304 688.546, 763.806 688.806 C 770.514 689.304, 774.314 685.714, 770.800 682.200 C 769.159 680.559, 760.079 680.630, 759.443 682.289 M 872 693 L 872 704 877.577 704 C 882.408 704, 883.545 703.609, 886.077 701.077 C 888.551 698.602, 889 697.363, 889 693 C 889 688.637, 888.551 687.398, 886.077 684.923 C 883.545 682.391, 882.408 682, 877.577 682 L 872 682 872 693 M 759.668 699.656 C 759.342 701.667, 759.310 703.692, 759.597 704.156 C 760.333 705.347, 768.745 705.207, 771.066 703.965 C 772.183 703.367, 773 701.878, 773 700.440 C 773 697.525, 769.931 696, 764.066 696 C 760.462 696, 760.230 696.193, 759.668 699.656" stroke="none" fill="currentColor" fill-rule="evenodd"/></g>
</svg>
