<?xml version="1.0" encoding="UTF-8" standalone="no"?>
<!DOCTYPE svg PUBLIC "-//W3C//DTD SVG 1.1//EN" "http://www.w3.org/Graphics/SVG/1.1/DTD/svg11.dtd">
<svg width="100%" height="100%" viewBox="0 0 32 32" version="1.1" xmlns="http://www.w3.org/2000/svg" xmlns:xlink="http://www.w3.org/1999/xlink" xml:space="preserve" xmlns:serif="http://www.serif.com/" style="fill-rule:evenodd;clip-rule:evenodd;stroke-linejoin:round;stroke-miterlimit:2;">
    <path d="M32,4L32,28C32,30.208 30.208,32 28,32L4,32C1.792,32 0,30.208 0,28L0,4C0,1.792 1.792,0 4,0L28,0C30.208,0 32,1.792 32,4Z" style="fill:rgb(204,255,0);"/>
    <g transform="matrix(0.100604,0,0,0.100604,-27.273971,-36.819476)">
        <path d="M319.862,417.749C289.754,417.99 285.052,418.232 283.914,419.604C282.156,421.722 281.678,446.768 283.335,449.932C284.104,451.401 286.711,452.897 291,454.329C312.357,461.462 324.449,477.754 328.543,504.913C334.15,542.106 322.279,580.448 298.639,601.507L292.661,606.832L292.58,618.357C292.523,626.566 292.874,630.259 293.8,631.191C294.849,632.248 314.108,632.557 393.8,632.796C497.069,633.106 515.365,632.597 529.518,629.019C560.002,621.314 577.959,597.772 577.968,565.5C577.973,548.729 573.145,536.106 562.833,525.928C557.409,520.576 547.164,514.337 539.36,511.635L535.696,510.367L543.378,506.718C566.269,495.847 576.088,469.346 565.661,446.572C561.99,438.553 558.703,434.693 551.149,429.532C542.936,423.92 533.192,420.432 520.301,418.489C510.659,417.036 441.411,416.78 319.862,417.749M415.314,457.95C409.765,461.334 409.552,462.408 409.525,487.167C409.511,499.633 409.795,510.128 410.156,510.489C410.517,510.85 413.217,509.555 416.156,507.611C423.534,502.732 432.985,499.387 446.04,497.037C466.287,493.391 474.815,487.496 477.439,475.334C479.073,467.758 473.467,459.334 465.277,457.06C463.182,456.478 451.929,456.01 440,456.009C420.469,456.008 418.208,456.185 415.314,457.95M447,519.631C436.432,521.653 428.085,525.823 420.912,532.665C412.278,540.901 407,553.396 407,565.602C407,572.9 409.946,584.037 412.572,586.663C414.713,588.804 415.757,589 424.997,589C456.6,589 479.172,574.054 482.984,550.604C485.776,533.433 474.972,520.801 456.47,519.604C452.637,519.356 448.375,519.368 447,519.631"/>
    </g>
</svg>
